<svg width="96" height="96" xmlns="http://www.w3.org/2000/svg" xmlns:xlink="http://www.w3.org/1999/xlink" xml:space="preserve" overflow="hidden"><g transform="translate(-244 -541)"><path d="M268 616C268 612.686 265.314 610 262 610 258.686 610 256 612.686 256 616 256 619.314 258.686 622 262 622 265.314 622 268 619.314 268 616ZM258 616C258 613.791 259.791 612 262 612 264.209 612 266 613.791 266 616 266 618.209 264.209 620 262 620 259.791 620 258 618.209 258 616Z"/><path d="M298 616C298 612.686 295.314 610 292 610 288.686 610 286 612.686 286 616 286 619.314 288.686 622 292 622 295.314 622 298 619.314 298 616ZM288 616C288 613.791 289.791 612 292 612 294.209 612 296 613.791 296 616 296 618.209 294.209 620 292 620 289.791 620 288 618.209 288 616Z"/><path d="M322 610C318.686 610 316 612.686 316 616 316 619.314 318.686 622 322 622 325.314 622 328 619.314 328 616 328 612.686 325.314 610 322 610ZM322 620C319.791 620 318 618.209 318 616 318 613.791 319.791 612 322 612 324.209 612 326 613.791 326 616 326 618.209 324.209 620 322 620Z"/><path d="M275 571 309 571 309 557 275 557ZM277 559 307 559 307 569 277 569Z"/><path d="M323 607 323 590 299.414 590 293 583.586 293 574 291 574 291 583.586 284.586 590 261 590 261 607 263 607 263 592 284.586 592 291 598.414 291 607 293 607 293 598.414 299.414 592 321 592 321 607ZM292 596.586 286.414 591 292 585.414 297.586 591Z"/></g></svg>