<svg width="96" height="96" xmlns="http://www.w3.org/2000/svg" xmlns:xlink="http://www.w3.org/1999/xlink" xml:space="preserve" overflow="hidden"><g transform="translate(-275 -172)"><path d="M283 189 283 251 363 251 363 189ZM352 195C353.105 195 354 195.895 354 197 354 198.105 353.105 199 352 199 350.895 199 350 198.105 350 197 350 195.895 350.895 195 352 195ZM345 195C346.105 195 347 195.895 347 197 347 198.105 346.105 199 345 199 343.895 199 343 198.105 343 197 343 195.895 343.895 195 345 195ZM338 195C339.105 195 340 195.895 340 197 340 198.105 339.105 199 338 199 336.895 199 336 198.105 336 197 336 195.895 336.895 195 338 195ZM357 245 289 245 289 205 357 205Z"/><path d="M320.75 218.438C320.75 222.442 317.504 225.688 313.5 225.688 309.496 225.688 306.25 222.442 306.25 218.438 306.25 214.434 309.496 211.188 313.5 211.188 317.504 211.188 320.75 214.434 320.75 218.438Z"/><path d="M328 242 328 234.75C327.976 233.615 327.444 232.55 326.55 231.85 324.448 230.24 322.044 229.069 319.481 228.406 317.543 227.812 315.527 227.507 313.5 227.5 311.475 227.535 309.464 227.839 307.519 228.406 304.985 229.146 302.594 230.31 300.45 231.85 299.556 232.55 299.024 233.615 299 234.75L299 242Z"/><path d="M327.05 210.13 345.95 210.13C346.533 210.133 347.003 210.609 347 211.192 347 211.192 347 211.192 347 211.192L347 223.959C347.003 224.542 346.533 225.018 345.95 225.021 345.95 225.021 345.95 225.021 345.95 225.021L334.4 225.021 330.2 229.277 330.2 225.021 327.05 225.021C326.467 225.018 325.997 224.542 326 223.959 326 223.959 326 223.959 326 223.959L326 211.192C325.997 210.609 326.467 210.133 327.05 210.13 327.05 210.13 327.05 210.13 327.05 210.13Z"/></g></svg>