<svg width="96" height="96" xmlns="http://www.w3.org/2000/svg" xmlns:xlink="http://www.w3.org/1999/xlink" xml:space="preserve" overflow="hidden"><g transform="translate(-264 -25)"><path d="M300.535 93.142C300.534 95.6499 302.567 97.6834 305.075 97.684 307.583 97.6845 309.616 95.6519 309.617 93.144 309.618 90.6361 307.585 88.6026 305.077 88.602 305.076 88.602 305.076 88.602 305.075 88.602 302.568 88.6026 300.536 90.6348 300.535 93.142ZM307.616 93.142C307.617 94.5454 306.479 95.6834 305.076 95.684 303.673 95.6845 302.535 94.5474 302.534 93.144 302.533 91.7406 303.671 90.6025 305.074 90.602 305.075 90.602 305.075 90.602 305.076 90.602 306.478 90.6042 307.614 91.7401 307.616 93.142Z"/><path d="M313.107 101.653C311.802 100.647 310.309 99.9128 308.716 99.493 307.513 99.1238 306.263 98.9351 305.005 98.933 303.749 98.9518 302.501 99.1402 301.295 99.493 299.72 99.959 298.235 100.689 296.904 101.653 296.349 102.092 296.019 102.756 296.004 103.463L296.004 108 314.004 108 314.004 103.46C313.989 102.754 313.66 102.092 313.107 101.653ZM312.007 106 298 106 298 103.5C298.002 103.398 298.046 103.301 298.121 103.233 299.254 102.421 300.515 101.803 301.852 101.407 302.88 101.107 303.944 100.946 305.015 100.928 306.069 100.931 307.117 101.09 308.125 101.4L308.202 101.422C309.53 101.769 310.775 102.38 311.863 103.217 311.94 103.275 311.99 103.362 312.003 103.458Z"/><path d="M320.4 93.142C320.399 95.6499 322.432 97.6834 324.94 97.684 327.448 97.6845 329.482 95.6519 329.482 93.144 329.483 90.6361 327.45 88.6026 324.942 88.602 324.942 88.602 324.941 88.602 324.941 88.602 322.434 88.6026 320.401 90.6347 320.4 93.142ZM327.482 93.142C327.483 94.5454 326.345 95.6834 324.942 95.684 323.539 95.6845 322.401 94.5474 322.4 93.144 322.399 91.7406 323.537 90.6025 324.94 90.602 324.94 90.602 324.941 90.602 324.941 90.602 326.342 90.6053 327.477 91.7409 327.479 93.142Z"/><path d="M333.109 101.653C331.804 100.647 330.312 99.9131 328.719 99.493 327.517 99.1239 326.266 98.9352 325.008 98.933 323.752 98.9518 322.504 99.1402 321.298 99.493 319.722 99.9588 318.238 100.689 316.907 101.653 316.352 102.092 316.022 102.756 316.007 103.463L316.007 108 334.007 108 334.007 103.46C333.992 102.754 333.663 102.091 333.109 101.653ZM332.009 106 318.009 106 318.009 103.5C318.011 103.398 318.055 103.301 318.131 103.233 319.264 102.42 320.524 101.803 321.861 101.407 322.889 101.107 323.953 100.946 325.024 100.928 326.079 100.931 327.127 101.09 328.135 101.4L328.212 101.422C329.54 101.769 330.785 102.379 331.872 103.217 331.949 103.275 331.999 103.362 332.012 103.458Z"/><path d="M340.4 93.142C340.4 95.6499 342.432 97.6834 344.94 97.684 347.448 97.6845 349.482 95.6519 349.482 93.144 349.483 90.6361 347.45 88.6026 344.942 88.602 344.942 88.602 344.941 88.602 344.941 88.602 342.434 88.6026 340.401 90.6347 340.4 93.142ZM347.481 93.142C347.482 94.5454 346.344 95.6834 344.941 95.684 343.538 95.6845 342.4 94.5474 342.399 93.144 342.398 91.7406 343.536 90.6025 344.939 90.602 344.94 90.602 344.94 90.602 344.941 90.602 346.343 90.6037 347.479 91.7399 347.481 93.142Z"/><path d="M353.112 101.653C351.807 100.647 350.314 99.9128 348.721 99.493 347.519 99.1239 346.269 98.9352 345.011 98.933 343.754 98.9518 342.506 99.1401 341.3 99.493 339.725 99.9588 338.24 100.689 336.91 101.653 336.354 102.091 336.024 102.755 336.01 103.463L336.01 108 354.01 108 354.01 103.46C353.995 102.754 353.666 102.091 353.112 101.653ZM352.012 106 338.012 106 338.012 103.5C338.014 103.398 338.057 103.301 338.133 103.233 339.266 102.421 340.527 101.803 341.864 101.407 342.892 101.107 343.956 100.946 345.027 100.928 346.081 100.931 347.129 101.09 348.137 101.4L348.214 101.422C349.542 101.769 350.787 102.38 351.875 103.217 351.952 103.275 352.002 103.362 352.015 103.458Z"/><path d="M288 38C288 36.8954 288.895 36 290 36L341 36C342.105 36 343 36.8954 343 38L343 72C343 73.1046 342.105 74 341 74L307.163 74 305.952 76 341 76C343.209 76 345 74.2091 345 72L345 38C345 35.7909 343.209 34 341 34L290 34C287.791 34 286 35.7909 286 38L286 42.033C286.678 42.0791 287.349 42.2026 288 42.401Z"/><path d="M297.9 72.131C298.285 72.1773 298.661 71.9973 298.867 71.669L303.159 64.823C303.628 64.0806 304.61 63.8589 305.352 64.3279 305.378 64.3439 305.403 64.3606 305.427 64.378 306.118 64.9363 306.263 65.9323 305.759 66.664L300.52 75.317C299.987 76.1965 298.859 76.5064 297.951 76.023 297.463 75.7634 296.858 75.9483 296.598 76.436 296.338 76.9237 296.523 77.5294 297.011 77.789 298.856 78.7708 301.147 78.1405 302.23 76.353L307.459 67.717C308.278 66.4513 308.253 64.8163 307.394 63.577L320.076 50.658C320.457 50.2581 320.442 49.6252 320.042 49.2442 319.65 48.8709 319.032 48.877 318.648 49.258L305.807 62.338C305.172 62.0847 304.478 62.0191 303.807 62.149 302.84 62.3426 301.993 62.9231 301.464 63.756L298.3 68.805 296.453 63.217 296.388 63.063C294.9 59.647 291.355 59 285.344 59 279.333 59 275.792 59.647 274.292 63.073 274.292 63.073 274.252 63.157 274.232 63.214 274.206 63.2823 274.185 63.3525 274.169 63.424L270.678 82.509C270.261 84.2832 271.361 86.0595 273.135 86.4765 273.216 86.4954 273.297 86.5112 273.378 86.524L273.678 86.571C273.73 86.5794 273.783 86.5834 273.836 86.583 274.388 86.5659 274.822 86.1045 274.805 85.5525 274.79 85.0819 274.449 84.6852 273.986 84.6L273.686 84.552C273.328 84.497 273.011 84.2941 272.81 83.993 272.602 83.6773 272.538 83.2876 272.635 82.922L276.116 63.896 276.127 63.868C276.942 62.007 278.651 61 285.344 61 292.037 61 293.744 62.007 294.553 63.851L297.071 71.451C297.192 71.8192 297.515 72.0842 297.9 72.131Z"/><path d="M292 68.42C291.448 68.42 291 68.8677 291 69.42L291 110 286.5 110 286.5 85.148 284.5 85.148 284.5 110 280 110 280 69.42C280 68.8677 279.552 68.42 279 68.42 278.448 68.42 278 68.8677 278 69.42L278 112 293 112 293 69.42C293 68.8677 292.552 68.42 292 68.42Z"/><path d="M285.344 57C288.658 57 291.344 54.3137 291.344 51 291.344 47.6863 288.658 45 285.344 45 282.03 45 279.344 47.6863 279.344 51 279.348 54.3121 282.032 56.9961 285.344 57ZM285.344 47C287.553 47 289.344 48.7909 289.344 51 289.344 53.2091 287.553 55 285.344 55 283.135 55 281.344 53.2091 281.344 51 281.344 48.7909 283.135 47 285.344 47Z"/></g></svg>