<svg width="96" height="96" xmlns="http://www.w3.org/2000/svg" xmlns:xlink="http://www.w3.org/1999/xlink" xml:space="preserve" overflow="hidden"><g transform="translate(-254 -297)"><path d="M295 324.008 295 349.825 315 336.911ZM297 327.678 311.313 336.912 297 346.153Z"/><path d="M266 357C265.448 357 265 357.448 265 358 265 358.552 265.448 359 266 359L299.586 359 281.793 376.793C281.409 377.19 281.42 377.823 281.818 378.207 282.205 378.581 282.819 378.581 283.207 378.207L300.983 360.431C300.987 360.427 300.993 360.427 300.997 360.431 300.999 360.433 301 360.435 301 360.438L301 381C301 381.552 301.448 382 302 382 302.552 382 303 381.552 303 381L303 360.438C303 360.432 303.005 360.428 303.01 360.428 303.013 360.428 303.015 360.429 303.017 360.431L320.793 378.207C321.19 378.591 321.823 378.58 322.207 378.182 322.581 377.795 322.581 377.18 322.207 376.793L304.414 359 338 359C338.552 359 339 358.552 339 358 339 357.448 338.552 357 338 357L334 357 334 316 338 316C338.552 316 339 315.552 339 315 339 314.448 338.552 314 338 314L303 314 303 310C303 309.448 302.552 309 302 309 301.448 309 301 309.448 301 310L301 314 266 314C265.448 314 265 314.448 265 315 265 315.552 265.448 316 266 316L270 316 270 357ZM272 316 332 316 332 357 272 357Z"/></g></svg>