<?xml version="1.0" ?><!DOCTYPE svg  PUBLIC '-//W3C//DTD SVG 1.1//EN'  'http://www.w3.org/Graphics/SVG/1.1/DTD/svg11.dtd'><svg height="6.82666in" style="shape-rendering:geometricPrecision; text-rendering:geometricPrecision; image-rendering:optimizeQuality; fill-rule:evenodd; clip-rule:evenodd" viewBox="0 0 6.82666 6.82666" width="6.82666in" xml:space="preserve" xmlns="http://www.w3.org/2000/svg" xmlns:xlink="http://www.w3.org/1999/xlink"><defs><style type="text/css">
   <![CDATA[
    .fil1 {fill:none}
    .fil0 {fill:#212121;fill-rule:nonzero}
   ]]>
  </style></defs><g id="Layer_x0020_1"><g id="_264859216"><path class="fil0" d="M2.83373 4.08723c0.234571,-0.12152 0.468327,-0.242677 0.702075,-0.363862 0.229406,-0.118933 0.458823,-0.237913 0.689008,-0.357299 -0.255059,-0.133181 -0.508724,-0.265543 -0.762114,-0.397764 -0.209614,-0.109378 -0.419059,-0.218677 -0.628969,-0.328256l0 1.44718zm0.750823 -0.26928c-0.259551,0.134563 -0.51911,0.269091 -0.779783,0.404118l-0.0777087 0.040252 0 -0.0875433 0 -1.62249 0 -0.0877638 0.0779173 0.0406811c0.236012,0.123224 0.471343,0.246024 0.706886,0.368933 0.283362,0.147858 0.567059,0.295898 0.852677,0.445059l0.0905591 0.0472953 -0.0907677 0.0470787c-0.260673,0.135205 -0.520232,0.269819 -0.77978,0.404378z" id="_264859240"/><path class="fil0" d="M5.83278 4.58511c-0.0327126,0.14115 -0.106701,0.263898 -0.20726,0.355248 -0.101142,0.091874 -0.229165,0.152126 -0.369209,0.16763 -0.305,0.0341142 -0.612587,0.0512874 -0.921185,0.0598937 -0.306618,0.00855118 -0.614535,0.00855118 -0.921929,0.00837402 -0.307256,0.000177165 -0.615177,0.000177165 -0.921839,-0.00837402 -0.308642,-0.0086063 -0.616319,-0.0257795 -0.921354,-0.0598937 -0.140071,-0.0155039 -0.268122,-0.0757756 -0.36922,-0.167677 -0.100508,-0.0913583 -0.174394,-0.214094 -0.206894,-0.355201 -0.0436378,-0.189098 -0.0654331,-0.386354 -0.0763071,-0.584752 -0.0109252,-0.199445 -0.0109291,-0.395992 -0.0109291,-0.586795 0,-0.191055 0.000279528,-0.387858 0.0114685,-0.587185 0.0111457,-0.198484 0.0332087,-0.395748 0.0768228,-0.584815 0.0323071,-0.141047 0.106157,-0.263748 0.206673,-0.35511 0.101157,-0.0919528 0.229335,-0.15226 0.369445,-0.167764 0.304996,-0.0341181 0.612673,-0.0512913 0.921315,-0.0599016 0.306665,-0.00855118 0.614587,-0.00855118 0.921799,-0.00837402 0.307256,-0.000177165 0.615197,-0.000177165 0.921823,0.00837402 0.308606,0.00861024 0.616193,0.0257835 0.921016,0.0599016 0.140244,0.0154961 0.268476,0.0757756 0.369728,0.167689 0.100626,0.0913504 0.174594,0.214075 0.207094,0.355185 0.0859488,0.37402 0.0859488,0.779492 0.0859409,1.16233l0.000208661 0 0 0.00967323 -0.000208661 0c1.5748e-005,0.192681 -7.48031e-005,0.391154 -0.0108425,0.586795 -0.0109134,0.19839 -0.0327126,0.395646 -0.0761575,0.584752zm-0.278929 0.2765c0.0849961,-0.0772126 0.147535,-0.180961 0.175181,-0.300248 0.0419449,-0.182579 0.0630433,-0.373945 0.0736535,-0.566839 0.0107638,-0.19563 0.0108543,-0.391161 0.0108425,-0.580961l-0.000208661 0 0 -0.00967323 0.000208661 0c3.93701e-006,-0.376594 7.87402e-006,-0.775457 -0.083437,-1.13858 -0.0274685,-0.119264 -0.0899803,-0.222992 -0.175016,-0.300185 -0.0849213,-0.0770866 -0.19235,-0.12763 -0.309728,-0.140602 -0.30328,-0.0339488 -0.607673,-0.0509882 -0.91226,-0.0594843 -0.306567,-0.00854724 -0.613094,-0.00854724 -0.918909,-0.00837402 -0.305772,-0.000173228 -0.61228,-0.000173228 -0.918886,0.00837402 -0.304618,0.00849606 -0.609102,0.0255394 -0.912559,0.0594843 -0.117224,0.0129724 -0.224587,0.0635433 -0.309445,0.140677 -0.0848898,0.0771614 -0.14728,0.180858 -0.174594,0.30011 -0.0421299,0.182626 -0.0634843,0.373984 -0.0743189,0.566902 -0.0107835,0.192075 -0.0110512,0.389496 -0.0110512,0.58135 0,0.191677 0,0.38913 0.0105118,0.580961 0.0105709,0.192882 0.0316654,0.384244 0.0738031,0.566839 0.0274724,0.119291 0.0899055,0.22302 0.174815,0.300201 0.0847992,0.0770866 0.192043,0.127618 0.30922,0.140591 0.303492,0.0339449 0.607976,0.0509843 0.912598,0.0594764 0.306602,0.00854724 0.61311,0.00854724 0.918925,0.00837402 0.305953,0.000173228 0.612457,0.000173228 0.919016,-0.00837402 0.304579,-0.00849213 0.608972,-0.0255354 0.912429,-0.0594764 0.117157,-0.0129724 0.224382,-0.0634882 0.309209,-0.140543z" id="_264859096"/></g></g><rect class="fil1" height="6.82666" width="6.82666"/></svg>